{"glyphs":{" ":{"ha":0,"x_min":0,"x_max":0,"o":""},"A":{"ha":1247,"x_min":0,"x_max":0,"o":"m 819 465 b 732 349 761 414 732 375 b 819 229 732 321 761 281 b 953 83 885 172 901 154 b 1025 -175 1001 15 1024 -69 l 1090 -175 b 1108 -193 1103 -175 1108 -181 l 1108 -224 b 1090 -242 1108 -236 1103 -242 l 157 -242 b 139 -224 144 -242 139 -236 l 139 -193 b 157 -175 139 -181 144 -175 l 226 -175 b 276 74 228 -69 251 21 b 329 151 289 100 306 125 b 383 207 351 178 369 196 b 440 250 396 217 415 232 b 440 446 550 326 550 369 b 383 490 415 464 396 479 b 329 544 369 500 351 518 b 276 624 306 571 289 597 b 226 871 251 676 228 765 l 157 871 b 139 889 144 871 139 876 l 139 918 b 157 936 139 931 144 936 l 1090 936 b 1108 918 1103 936 1108 931 l 1108 889 b 1090 871 1108 876 1103 871 l 1025 871 b 953 613 1024 765 1001 681 b 819 465 901 540 885 525 "},"B":{"ha":1701,"x_min":0,"x_max":0,"o":"m 1332 936 b 1494 868 1394 936 1449 914 b 1563 706 1540 822 1563 768 l 1563 189 b 1494 26 1563 125 1540 71 b 1332 -42 1449 -19 1394 -42 l 944 -42 b 1001 -112 965 -65 983 -89 l 1111 -247 b 1108 -272 1119 -257 1118 -265 l 1085 -292 b 1060 -289 1075 -300 1067 -299 l 950 -153 b 883 -69 936 -136 893 -79 l 883 -279 b 865 -297 883 -292 878 -297 l 836 -297 b 818 -279 824 -297 818 -292 l 818 -69 b 751 -153 808 -79 765 -136 l 642 -289 b 617 -292 635 -299 626 -300 l 593 -272 b 592 -247 583 -264 583 -256 l 700 -112 b 757 -42 735 -69 754 -46 l 371 -42 b 207 26 307 -42 253 -19 b 139 189 161 71 139 125 l 139 706 b 207 868 139 768 161 822 b 371 936 253 914 307 936 "},"C":{"ha":1701,"x_min":0,"x_max":0,"o":"m 525 -293 b 499 -296 518 -303 508 -304 l 475 -278 b 472 -253 467 -271 465 -262 l 635 -44 l 371 -44 b 207 24 307 -44 253 -22 b 139 186 161 68 139 122 l 139 703 b 207 865 139 765 161 819 b 371 933 253 911 307 933 l 1332 933 b 1494 865 1394 933 1449 911 b 1563 703 1540 819 1563 765 l 1563 186 b 1494 24 1563 122 1540 68 b 1332 -44 1449 -22 1394 -44 l 1067 -44 l 1229 -253 b 1226 -278 1236 -262 1236 -271 l 1203 -296 b 1178 -293 1194 -304 1186 -303 l 983 -44 l 718 -44 m 483 258 b 408 194 444 265 408 235 b 472 131 408 160 438 131 b 538 194 510 131 538 160 b 533 215 538 203 536 210 l 703 415 b 714 414 707 415 710 414 b 746 424 725 414 736 417 l 904 335 b 968 272 904 300 933 272 b 1033 336 1003 272 1033 301 b 1028 363 1033 346 1032 356 l 1224 629 b 1294 694 1261 625 1294 656 b 1229 758 1294 729 1264 758 b 1165 694 1194 758 1165 729 b 1171 668 1165 685 1167 675 l 975 401 l 968 401 b 936 393 956 401 946 399 l 779 481 b 714 543 778 515 749 543 b 649 479 676 543 649 514 b 653 458 649 471 650 464 "},"D":{"ha":1332,"x_min":0,"x_max":0,"o":"m 1161 201 b 1193 144 1182 189 1193 169 b 1128 81 1193 110 1163 81 b 1063 144 1093 81 1063 110 b 1094 201 1063 171 1074 189 l 1094 425 l 661 175 l 163 461 b 163 536 131 479 131 518 l 608 793 b 714 793 643 814 679 814 l 1158 536 b 1161 463 1190 518 1190 483 m 631 117 b 690 117 651 104 671 104 l 972 278 l 972 74 b 349 75 972 -189 349 -187 l 349 278 "},"E":{"ha":1315,"x_min":0,"x_max":0,"o":"m 464 494 l 204 754 l 204 568 b 186 549 204 556 199 549 l 157 549 b 139 568 144 549 139 556 l 139 806 b 200 867 139 839 165 867 l 438 867 b 456 849 450 867 456 861 l 456 819 b 438 801 456 807 450 801 l 251 801 l 511 542 b 511 515 521 532 521 524 l 490 494 b 464 494 482 485 474 485 m 804 542 l 1064 801 l 876 801 b 858 819 864 801 858 807 l 858 849 b 876 867 858 861 864 867 l 1115 867 b 1176 806 1149 867 1176 839 l 1176 568 b 1158 549 1176 556 1171 549 l 1129 549 b 1110 568 1117 549 1110 556 l 1110 754 l 850 494 b 825 494 843 485 835 485 l 804 515 b 804 542 796 524 796 532 m 511 154 l 251 -106 l 438 -106 b 456 -124 450 -106 456 -111 l 456 -153 b 438 -171 456 -165 450 -171 l 200 -171 b 139 -110 165 -171 139 -143 l 139 129 b 157 147 139 142 144 147 l 186 147 b 204 129 199 147 204 142 l 204 -58 l 464 201 b 490 201 474 210 482 210 l 511 181 b 511 154 521 171 521 163 m 850 201 l 1110 -58 l 1110 129 b 1129 147 1110 142 1117 147 l 1158 147 b 1176 129 1171 147 1176 142 l 1176 -110 b 1115 -171 1176 -143 1149 -171 l 876 -171 b 858 -153 864 -171 858 -165 l 858 -124 b 876 -106 858 -111 864 -106 l 1064 -106 l 804 154 b 804 181 796 163 796 171 l 825 201 b 850 201 835 211 843 211 "},"F":{"ha":1286,"x_min":0,"x_max":0,"o":"m 206 846 l 465 586 l 465 772 b 483 790 465 785 471 790 l 514 790 b 532 772 526 790 532 785 l 532 533 b 471 472 532 500 504 472 l 232 472 b 214 490 219 472 214 478 l 214 521 b 232 539 214 533 219 539 l 418 539 l 158 799 b 158 824 150 807 150 815 l 181 846 b 206 846 188 856 196 856 m 1151 800 l 892 539 l 1079 539 b 1097 521 1092 539 1097 533 l 1097 492 b 1079 474 1097 479 1092 474 l 840 474 b 779 535 807 474 779 501 l 779 774 b 797 792 779 786 785 792 l 826 792 b 844 774 839 792 844 786 l 844 586 l 1104 846 b 1131 846 1114 854 1122 854 l 1151 825 b 1151 800 1161 815 1161 807 m 1106 -147 l 846 113 l 846 -74 b 828 -92 846 -86 840 -92 l 797 -92 b 779 -74 785 -92 779 -86 l 779 165 b 840 226 779 199 807 226 l 1079 226 b 1097 208 1092 226 1097 221 l 1097 178 b 1079 160 1097 165 1092 160 l 893 160 l 1153 -100 b 1153 -125 1161 -108 1161 -117 l 1131 -147 b 1106 -147 1124 -154 1115 -154 m 160 -100 l 419 160 l 232 160 b 214 178 219 160 214 165 l 214 207 b 232 225 214 219 219 225 l 471 225 b 532 164 504 225 532 197 l 532 -75 b 514 -93 532 -87 526 -93 l 485 -93 b 467 -75 472 -93 467 -87 l 467 113 l 207 -147 b 181 -147 197 -157 189 -157 l 160 -126 b 160 -100 150 -118 150 -110 "},"G":{"ha":1363,"x_min":0,"x_max":0,"o":"m 1046 671 b 1172 619 1094 671 1138 654 b 1224 493 1207 585 1224 542 l 1224 367 l 714 367 l 714 606 l 649 606 l 649 367 l 139 367 l 139 493 b 192 619 139 542 157 585 b 317 671 226 654 268 671 l 396 671 l 383 682 b 511 988 271 794 351 988 b 681 861 588 988 649 935 b 851 988 713 938 778 988 b 978 682 1013 988 1089 793 l 967 671 m 431 728 b 649 672 467 693 539 674 b 631 824 649 739 647 772 b 592 889 621 850 608 871 b 511 922 569 911 543 922 b 431 728 410 922 361 799 m 932 728 b 956 851 967 763 975 804 b 851 922 936 899 901 922 b 771 889 819 922 793 911 b 714 672 722 839 714 774 b 932 728 824 674 896 693 m 649 -242 l 403 -242 b 278 -190 354 -242 313 -225 b 225 -64 243 -156 225 -112 l 225 299 l 649 299 m 1136 299 l 1136 -64 b 1085 -190 1136 -112 1119 -156 b 960 -242 1050 -225 1008 -242 l 714 -242 l 714 299 "},"H":{"ha":1431,"x_min":0,"x_max":0,"o":"m 1218 929 b 1292 869 1256 936 1292 908 l 1292 90 b 1222 -37 1292 39 1268 -3 b 1071 -83 1179 -68 1129 -83 b 918 -37 1011 -83 961 -68 b 850 86 872 -4 850 38 b 918 210 850 135 872 176 b 1072 257 961 242 1013 257 b 1225 208 1132 256 1182 240 l 1225 863 l 582 729 l 582 -57 b 513 -185 582 -110 558 -153 b 361 -232 469 -217 419 -232 b 208 -185 301 -232 251 -217 b 139 -61 163 -151 139 -110 b 208 63 139 -12 163 29 b 363 110 251 94 303 110 b 515 60 422 108 472 92 l 515 733 b 565 793 515 761 536 786 "},"I":{"ha":1122,"x_min":0,"x_max":0,"o":"m 582 844 l 582 -54 b 513 -179 582 -104 558 -146 b 361 -226 469 -211 419 -226 b 208 -179 301 -226 251 -211 b 139 -56 163 -146 139 -104 b 208 68 139 -7 163 35 b 361 114 251 99 301 114 b 513 68 419 114 469 99 l 515 65 l 515 854 b 554 911 515 883 528 901 b 624 892 579 919 603 913 l 976 531 b 976 504 985 521 985 513 l 956 483 b 931 483 946 474 938 474 m 474 14 b 361 49 443 38 406 49 b 247 14 315 49 278 38 b 247 -126 192 -26 192 -86 b 361 -160 278 -149 315 -160 b 474 -126 406 -160 443 -149 b 474 14 529 -86 529 -26 "},"J":{"ha":1428,"x_min":0,"x_max":0,"o":"m 886 847 l 886 -51 b 818 -176 886 -103 864 -144 b 667 -224 775 -208 725 -224 b 513 -176 607 -224 556 -208 b 444 -53 467 -143 444 -101 b 513 71 444 -4 467 38 b 667 117 556 101 607 117 b 818 71 725 117 775 101 l 821 68 l 821 857 b 860 914 821 886 833 904 b 929 894 885 922 908 915 l 1282 533 b 1282 507 1290 524 1290 515 l 1261 486 b 1235 486 1251 476 1243 476 m 578 722 b 596 740 590 722 596 728 l 596 769 b 578 788 596 782 590 788 l 157 788 b 139 769 144 788 139 782 l 139 740 b 157 722 139 728 144 722 m 578 504 b 596 522 590 504 596 510 l 596 551 b 578 569 596 564 590 569 l 157 569 b 139 551 144 569 139 564 l 139 522 b 157 504 139 510 144 504 m 578 286 b 596 304 590 286 596 292 l 596 335 b 578 353 596 347 590 353 l 157 353 b 139 335 144 353 139 347 l 139 304 b 157 286 139 292 144 286 m 779 17 b 551 17 717 63 614 63 b 551 -124 497 -24 497 -83 b 779 -124 614 -168 717 -168 b 779 17 835 -83 835 -24 "},"K":{"ha":1411,"x_min":0,"x_max":0,"o":"m 1267 583 b 1242 482 1299 551 1285 497 b 1113 471 1201 469 1158 465 l 921 279 b 940 -19 967 176 972 76 b 839 -43 925 -62 871 -75 l 604 192 l 204 -210 b 179 -210 196 -218 188 -218 l 158 -189 b 158 -162 150 -179 150 -171 l 558 239 l 322 475 b 346 576 290 507 303 561 b 643 557 442 608 540 603 l 836 749 b 846 878 829 792 832 835 b 947 901 861 921 915 935 "},"L":{"ha":1656,"x_min":0,"x_max":0,"o":"m 1310 892 b 1456 831 1367 892 1415 871 b 1517 685 1496 790 1517 742 l 1517 6 b 1456 -142 1517 -51 1496 -101 b 1310 -201 1415 -182 1367 -201 l 346 -201 b 200 -142 289 -201 240 -182 b 139 6 160 -101 139 -51 l 139 685 b 200 831 139 742 160 790 b 346 892 240 871 289 892 m 1451 685 b 1310 826 1451 763 1388 826 l 346 826 b 206 685 268 826 206 763 l 206 238 l 506 542 b 590 543 529 565 567 565 l 939 204 l 1114 382 b 1197 383 1136 406 1174 406 l 1451 151 m 946 708 b 1090 649 994 764 1094 721 b 1006 564 1090 603 1051 564 b 946 708 931 564 894 657 "},"M":{"ha":1403,"x_min":0,"x_max":0,"o":"m 536 -178 l 536 760 l 867 881 l 867 -56 m 1193 786 b 1264 683 1240 768 1264 733 l 1264 -97 b 1188 -150 1264 -140 1228 -162 l 933 -56 l 933 881 m 210 -82 b 139 21 163 -64 139 -31 l 139 800 b 214 853 139 843 175 868 l 469 760 l 469 -178 "},"N":{"ha":1342,"x_min":0,"x_max":0,"o":"m 632 894 b 710 896 658 907 683 908 l 1181 669 b 1181 601 1210 654 1210 614 l 721 381 b 621 381 688 365 654 365 l 161 601 b 161 669 132 617 132 654 m 1181 378 b 1181 310 1210 363 1210 322 l 721 89 b 621 89 688 74 654 74 l 161 310 b 161 378 132 322 132 363 l 318 453 l 593 322 b 749 322 644 297 697 297 l 1022 454 m 1181 86 b 1181 18 1210 74 1210 31 l 721 -203 b 621 -203 688 -218 654 -218 l 161 18 b 161 86 132 33 132 74 l 318 161 l 593 31 b 749 31 644 6 697 6 l 1022 163 "},"O":{"ha":1346,"x_min":0,"x_max":0,"o":"m 490 531 b 711 876 522 719 600 854 l 711 506 b 490 531 638 508 564 517 m 778 876 b 997 531 889 854 965 718 b 778 506 925 517 851 508 m 272 596 b 546 842 332 713 424 794 b 426 546 489 769 449 671 b 272 596 375 560 324 576 m 1063 546 b 943 842 1040 671 1000 769 b 1217 596 1065 794 1157 713 b 1063 546 1165 576 1114 560 m 244 157 b 244 536 197 283 197 410 b 417 481 307 513 364 493 b 417 211 407 390 407 301 b 244 157 360 197 301 179 m 1072 211 b 1072 481 1082 301 1082 390 b 1243 536 1124 493 1181 511 b 1244 157 1290 410 1290 283 b 1072 211 1185 179 1128 197 m 482 226 b 482 465 474 306 474 386 b 711 439 556 450 632 442 l 711 253 b 482 226 632 250 556 242 m 778 439 b 1007 465 857 442 933 450 b 1007 226 1015 386 1015 306 b 778 253 933 242 857 250 m 711 -185 b 490 161 599 -162 522 -26 b 711 186 564 176 638 185 m 999 161 b 778 -185 967 -28 889 -162 l 778 186 b 999 161 843 185 917 176 m 426 146 b 544 -150 449 19 488 -79 b 272 96 424 -101 332 -19 b 426 146 319 114 371 131 m 1217 96 b 943 -150 1157 -19 1065 -101 b 1063 146 1000 -79 1040 19 b 1217 96 1114 132 1165 115 "},"P":{"ha":1353,"x_min":0,"x_max":0,"o":"m 1050 901 b 1167 854 1096 901 1135 886 b 1214 739 1199 822 1214 783 l 1214 -31 b 1050 -194 1214 -121 1140 -194 l 303 -194 b 139 -31 213 -194 139 -121 l 139 739 b 188 854 139 783 156 822 b 303 901 219 886 257 901 m 321 782 b 250 710 282 782 250 750 b 321 638 250 669 282 638 b 393 710 361 638 393 669 b 321 782 393 750 361 782 m 1060 761 b 957 761 1032 789 985 789 b 957 658 929 733 929 686 b 1060 658 985 631 1032 631 b 1060 761 1088 686 1088 733 m 321 543 b 250 471 282 543 250 510 b 321 399 250 431 282 399 b 393 471 361 399 393 431 b 321 543 393 510 361 543 m 1060 522 b 936 471 1014 568 936 532 b 1008 399 936 431 968 399 b 1081 471 1049 399 1081 431 b 1060 522 1081 490 1074 507 m 321 310 b 250 238 282 310 250 278 b 321 165 250 199 282 165 b 393 238 361 165 393 199 b 321 310 393 278 361 310 m 1060 289 b 936 238 1015 333 936 301 b 1008 165 936 199 968 165 b 1081 238 1049 165 1081 199 b 1060 289 1081 258 1074 275 m 321 75 b 250 3 282 75 250 43 b 321 -69 250 -37 282 -69 b 393 3 361 -69 393 -37 b 321 75 393 43 361 75 m 1060 54 b 957 54 1032 82 985 82 b 957 -49 929 26 929 -21 b 1060 -49 985 -76 1032 -76 b 1060 54 1088 -21 1088 26 "},"Q":{"ha":1292,"x_min":0,"x_max":0,"o":"m 1086 7 b 850 578 1086 222 1001 426 b 279 814 699 729 494 814 b 261 832 267 814 261 819 l 261 863 b 279 881 261 875 267 881 b 1153 7 754 888 1160 482 b 1135 -11 1153 -6 1147 -11 l 1104 -11 b 1086 7 1092 -11 1086 -6 m 261 533 b 279 551 261 546 267 551 b 664 392 429 551 557 499 b 824 7 771 285 824 157 b 806 -11 824 -6 818 -11 l 775 -11 b 757 7 763 -11 757 -6 b 617 344 757 140 710 253 b 279 485 525 438 413 485 b 261 503 267 485 261 490 m 181 -92 b 181 106 125 -37 125 51 b 378 106 235 160 324 160 b 378 -92 432 51 432 -37 b 181 -92 324 -147 235 -147 "},"R":{"ha":1761,"x_min":0,"x_max":0,"o":"m 1581 511 b 893 789 1392 694 1147 789 b 206 511 642 789 393 694 b 181 511 197 503 189 503 l 158 533 b 158 558 150 542 150 550 b 1628 558 557 953 1229 953 b 1628 533 1638 549 1638 540 l 1606 511 b 1581 511 1599 501 1590 501 m 1354 260 b 1328 260 1344 251 1336 251 b 893 432 1207 375 1061 432 b 458 260 725 432 579 375 b 432 260 450 251 442 251 l 411 281 b 411 307 403 290 403 299 b 893 499 547 435 708 499 b 1375 307 1081 499 1240 435 b 1375 281 1383 299 1383 290 m 722 -8 b 893 53 771 32 828 53 b 1064 -8 958 53 1015 32 b 1067 -29 1072 -14 1074 -21 l 904 -192 b 883 -192 897 -199 890 -199 l 721 -31 b 722 -8 714 -24 714 -15 "},"S":{"ha":919,"x_min":0,"x_max":0,"o":"m 783 154 b 463 -174 778 -60 621 -181 b 142 154 304 -181 147 -60 b 218 449 140 233 165 332 b 403 786 269 564 332 676 b 524 785 432 832 492 833 b 708 447 594 675 657 563 b 783 154 760 332 785 233 "},"T":{"ha":1489,"x_min":0,"x_max":0,"o":"m 139 371 b 329 822 139 564 215 726 b 744 972 443 918 593 972 b 1161 822 896 972 1047 918 b 1350 371 1275 726 1350 564 l 1350 83 b 1267 -151 1350 -6 1322 -83 b 1033 -268 1211 -219 1133 -258 b 967 -207 996 -272 967 -242 l 967 374 b 1033 435 967 411 999 439 b 1285 296 1142 425 1225 378 l 1285 371 b 1115 774 1285 543 1217 688 b 743 907 1014 860 878 907 b 371 774 608 907 472 860 b 201 371 269 688 201 543 l 201 292 b 456 435 260 376 344 425 b 522 374 490 439 522 408 l 522 -207 b 456 -268 522 -242 490 -272 b 222 -151 356 -258 278 -219 b 139 83 167 -83 139 -6 "},"U":{"ha":1432,"x_min":0,"x_max":0,"o":"m 139 408 b 319 836 139 592 211 746 b 717 979 428 926 572 979 b 1114 836 860 979 1006 926 b 1293 408 1222 746 1293 592 l 1293 -72 b 1110 -410 1293 -217 1219 -337 b 726 -518 999 -481 864 -518 b 588 -378 650 -518 588 -456 b 726 -237 588 -300 650 -237 b 867 -378 804 -237 867 -300 b 850 -446 867 -401 861 -425 b 1118 -318 957 -425 1046 -382 b 1226 -72 1190 -254 1226 -172 b 994 -197 1172 -147 1096 -189 b 928 -136 957 -201 928 -171 l 928 410 b 994 471 928 444 957 475 b 1226 346 1096 463 1172 421 l 1226 408 b 204 408 1226 1081 204 1081 l 204 346 b 438 471 260 421 338 463 b 503 410 472 475 503 444 l 503 -136 b 438 -197 503 -171 472 -201 b 221 -93 347 -190 275 -156 b 139 139 167 -29 139 49 "},"V":{"ha":1482,"x_min":0,"x_max":0,"o":"m 1324 603 b 1324 518 1347 581 1347 542 l 1094 311 b 1054 294 1081 300 1067 294 l 736 294 l 736 -249 b 718 -267 736 -261 731 -267 l 689 -267 b 669 -249 676 -267 669 -261 l 669 294 l 351 294 b 201 357 293 294 243 315 b 139 507 160 399 139 449 l 139 622 b 201 772 139 681 160 731 b 351 835 243 814 293 835 l 669 835 l 669 954 b 689 972 669 967 676 972 l 718 972 b 736 954 731 972 736 967 l 736 835 l 1054 835 b 1094 818 1069 835 1083 829 "},"W":{"ha":1611,"x_min":0,"x_max":0,"o":"m 1457 749 b 1457 681 1478 731 1478 699 l 1319 544 b 1285 529 1310 535 1297 529 l 483 529 b 343 669 407 529 343 593 l 343 760 b 483 900 343 838 407 900 l 840 900 l 840 983 b 858 1001 840 996 846 1001 l 889 1001 b 907 983 901 1001 907 996 l 907 900 l 1285 900 b 1319 886 1299 900 1310 896 m 1161 453 b 1304 310 1240 453 1304 389 l 1304 215 b 1161 72 1304 136 1240 72 l 907 72 l 907 -242 b 889 -260 907 -254 901 -260 l 858 -260 b 840 -242 846 -260 840 -254 l 840 72 l 331 72 b 296 86 317 72 306 76 l 154 228 b 154 297 133 246 133 279 l 296 439 b 331 453 306 449 317 453 "},"X":{"ha":1503,"x_min":0,"x_max":0,"o":"m 678 822 l 494 615 l 336 822 m 1165 822 l 1008 615 l 825 822 m 565 596 l 751 806 l 938 596 m 139 596 l 272 797 l 425 596 m 1364 596 l 1076 596 l 1231 797 m 146 529 l 468 529 l 663 -65 l 626 -65 m 538 529 l 965 529 l 786 -65 l 718 -65 m 1035 529 l 1356 529 l 876 -65 l 840 -65 "},"Y":{"ha":1371,"x_min":0,"x_max":0,"o":"m 299 731 b 685 890 406 838 533 890 b 1072 731 836 890 965 838 b 1232 344 1179 624 1232 496 b 1072 -43 1232 193 1179 64 b 685 -203 965 -150 836 -203 b 299 -43 533 -203 406 -150 b 139 344 192 65 139 193 b 299 731 139 496 192 624 m 389 106 b 397 57 379 88 382 71 b 446 47 411 42 428 39 l 793 217 b 813 236 801 221 808 228 l 982 583 b 974 633 990 601 988 618 b 924 640 958 647 942 650 l 578 472 b 557 451 568 468 561 461 m 685 417 b 613 344 646 417 613 383 b 685 272 613 304 646 272 b 757 344 725 272 757 304 b 685 417 757 383 725 417 "},"Z":{"ha":1304,"x_min":0,"x_max":0,"o":"m 961 860 b 1106 800 1018 860 1065 840 b 1165 657 1146 760 1165 713 l 1165 38 b 1106 -106 1165 -18 1146 -65 b 961 -165 1065 -146 1018 -165 l 342 -165 b 199 -106 286 -165 239 -146 b 139 38 158 -65 139 -18 l 139 657 b 199 800 139 713 158 760 b 342 860 239 840 286 860 m 400 443 b 419 425 400 431 407 425 l 449 425 b 467 443 461 425 467 431 l 467 539 l 563 539 b 581 557 575 539 581 544 l 581 588 b 563 606 581 600 575 606 l 467 606 l 467 700 b 449 718 467 713 461 718 l 419 718 b 400 700 407 718 400 713 l 400 606 l 306 606 b 288 588 293 606 288 600 l 288 557 b 306 539 288 544 293 539 l 400 539 m 999 539 b 1017 557 1011 539 1017 544 l 1017 588 b 999 606 1017 600 1011 606 l 771 606 b 753 588 758 606 753 600 l 753 557 b 771 539 753 544 758 539 m 557 201 b 557 228 564 210 564 218 l 535 249 b 510 249 526 257 518 257 l 433 172 l 358 249 b 332 249 349 257 340 257 l 311 228 b 311 201 301 218 301 210 l 388 126 l 311 50 b 311 25 301 40 301 32 l 332 3 b 358 3 340 -7 349 -7 l 433 79 l 510 3 b 535 3 518 -6 526 -6 l 557 25 b 557 50 564 32 564 40 l 481 126 m 999 165 b 1017 183 1011 165 1017 171 l 1017 214 b 999 232 1017 226 1011 232 l 771 232 b 753 214 758 232 753 226 l 753 183 b 771 165 753 171 758 165 m 999 28 b 1017 46 1011 28 1017 33 l 1017 75 b 999 93 1017 88 1011 93 l 771 93 b 753 75 758 93 753 88 l 753 46 b 771 28 753 33 758 28 "},"a":{"ha":1468,"x_min":0,"x_max":0,"o":"m 1169 767 b 1249 746 1199 767 1225 760 l 832 326 b 635 326 778 272 689 272 l 219 746 b 297 767 242 760 268 767 m 167 -11 b 139 79 149 15 139 46 l 139 608 b 169 701 139 643 149 674 l 522 347 m 1297 701 b 1329 608 1318 672 1329 642 l 1329 79 b 1300 -11 1329 46 1319 15 l 944 346 m 588 281 b 733 219 628 240 676 219 b 879 281 790 219 839 240 l 899 299 l 1251 -57 b 1169 -79 1226 -72 1199 -79 l 297 -79 b 214 -57 268 -79 240 -72 l 568 300 "},"b":{"ha":1375,"x_min":0,"x_max":0,"o":"m 597 911 b 776 913 646 960 728 961 l 1165 521 l 839 193 l 824 208 b 686 264 786 246 740 264 b 549 208 632 264 586 246 l 535 194 l 210 521 m 488 147 l 163 -181 b 139 -101 147 -157 139 -131 l 139 389 b 150 447 139 410 143 429 b 165 472 154 456 158 464 m 886 146 l 1210 472 b 1236 389 1228 449 1236 421 l 1236 -101 b 1213 -181 1236 -131 1228 -157 m 596 163 b 688 197 619 186 650 197 b 776 163 724 197 753 186 l 1164 -226 b 1092 -246 1143 -239 1118 -246 l 283 -246 b 210 -226 257 -246 233 -239 "},"c":{"ha":1376,"x_min":0,"x_max":0,"o":"m 849 842 l 529 842 l 597 911 b 776 913 646 960 728 961 m 940 775 b 982 735 964 775 982 758 l 982 336 l 840 193 l 825 208 b 688 264 788 246 742 264 b 550 208 633 264 588 246 l 535 194 l 393 338 l 393 735 b 435 775 393 758 411 775 m 1049 640 l 1165 521 l 1049 403 m 328 404 l 211 521 l 328 638 m 489 147 l 163 -181 b 139 -101 147 -154 139 -128 l 139 389 b 167 472 139 421 149 449 m 1210 472 b 1238 389 1228 449 1238 421 l 1238 -101 b 1213 -181 1238 -131 1229 -157 l 886 146 m 597 163 b 778 163 646 208 729 208 l 1165 -226 b 1093 -246 1142 -239 1118 -246 l 283 -246 b 211 -226 257 -246 232 -239 "},"d":{"ha":1200,"x_min":0,"x_max":0,"o":"m 1068 693 b 999 188 1085 525 1060 349 b 653 -162 938 26 814 -108 b 572 -162 626 -171 600 -171 b 226 185 411 -112 288 22 b 157 693 164 347 140 525 b 197 732 161 721 169 731 b 406 788 260 733 329 751 b 585 911 481 822 540 864 b 640 911 603 932 622 932 b 821 788 685 864 744 822 b 1028 732 896 751 965 733 b 1068 693 1056 731 1064 721 m 851 554 b 843 578 857 565 854 574 l 817 592 b 792 583 806 596 797 593 l 607 229 l 490 413 b 465 418 483 422 475 424 l 440 403 b 435 378 429 396 428 388 l 558 183 b 660 189 588 139 636 143 "},"e":{"ha":1200,"x_min":0,"x_max":0,"o":"m 1068 693 b 999 188 1085 525 1060 349 b 653 -162 938 26 814 -108 b 572 -162 626 -171 600 -171 b 226 185 411 -112 288 22 b 157 693 164 347 140 525 b 197 732 161 721 169 731 b 406 788 260 733 329 751 b 585 911 481 822 540 864 b 640 911 603 932 622 932 b 821 788 685 864 744 822 b 1028 732 896 751 965 733 b 1068 693 1056 731 1064 721 m 746 199 b 772 199 756 190 764 190 l 793 221 b 793 246 803 228 803 236 l 660 379 l 793 514 b 793 539 803 521 803 529 l 772 560 b 746 560 764 568 756 568 l 613 426 l 479 560 b 453 560 469 568 461 568 l 432 539 b 432 514 422 529 422 521 l 565 379 l 432 246 b 432 221 422 236 422 228 l 453 199 b 479 199 461 190 469 190 l 613 333 "},"f":{"ha":1678,"x_min":0,"x_max":0,"o":"m 1514 199 b 1539 78 1531 161 1539 121 b 1449 -140 1539 -7 1508 -81 b 1232 -229 1389 -200 1317 -229 b 1014 -137 1147 -229 1074 -199 b 925 82 954 -76 924 -3 b 753 82 868 111 811 111 b 664 -137 754 -3 724 -76 b 446 -229 604 -199 531 -229 b 229 -140 361 -229 289 -200 b 139 78 169 -81 139 -7 b 164 199 139 121 147 161 l 350 726 b 447 868 371 800 414 844 b 544 904 465 883 521 899 b 608 918 556 907 576 911 b 629 904 619 921 626 917 l 636 875 b 622 854 639 864 635 857 b 556 840 610 850 565 843 b 529 833 550 839 542 836 b 482 811 504 826 500 821 b 413 704 453 794 431 758 l 283 338 b 446 385 335 369 389 385 b 636 319 517 385 581 363 b 744 150 692 275 728 218 b 935 150 807 174 871 174 b 1042 318 950 218 986 274 b 1232 385 1097 363 1161 385 b 1396 338 1290 385 1344 369 l 1265 704 b 1218 794 1251 746 1232 774 b 1176 822 1210 806 1185 817 b 1124 840 1168 828 1133 838 b 1056 854 1114 843 1068 850 b 1042 875 1043 857 1039 864 l 1049 904 b 1071 918 1051 917 1058 921 b 1147 901 1108 910 1133 904 b 1203 882 1160 897 1179 892 b 1256 851 1226 872 1244 863 b 1328 726 1278 828 1307 786 "},"g":{"ha":1368,"x_min":0,"x_max":0,"o":"m 622 824 b 865 875 693 892 774 910 b 1190 708 1013 818 1121 763 b 1283 572 1258 657 1289 613 b 1100 483 1276 521 1192 494 b 950 449 1054 478 1004 467 b 824 376 896 431 853 407 l 708 263 b 638 138 679 233 656 192 b 604 -14 619 83 608 33 b 514 -197 593 -106 565 -190 b 378 -104 475 -203 429 -172 b 213 219 321 -29 265 79 b 264 464 176 313 193 394 m 715 740 b 715 639 650 744 650 636 b 715 740 782 639 782 740 m 889 726 b 818 654 844 774 769 699 b 889 726 860 604 939 683 m 715 601 b 715 500 650 606 650 497 b 715 601 782 500 782 601 m 889 588 b 818 515 844 635 769 560 b 889 588 860 465 939 544 m 556 375 b 556 400 565 382 565 390 l 535 421 b 510 421 526 429 518 429 l 451 364 l 394 421 b 368 421 386 429 378 429 l 347 400 b 347 375 339 392 339 383 l 406 317 l 347 258 b 347 233 338 251 338 243 l 368 213 b 394 213 378 204 386 204 l 451 269 l 510 213 b 535 213 518 204 526 204 l 556 233 b 556 260 564 243 564 251 l 499 317 "},"h":{"ha":1264,"x_min":0,"x_max":0,"o":"m 664 -104 b 549 -153 632 -136 594 -153 b 433 -104 503 -153 465 -136 l 188 142 b 139 257 156 174 139 211 b 188 374 139 303 156 342 l 601 788 b 713 833 632 818 669 833 l 1061 833 b 1125 769 1099 833 1125 807 l 1124 419 b 1078 310 1124 376 1108 340 m 981 597 b 881 697 981 653 935 697 b 781 597 825 697 781 653 b 881 499 781 543 825 499 b 981 597 938 499 981 543 "},"i":{"ha":1489,"x_min":0,"x_max":0,"o":"m 543 853 b 1142 772 742 907 953 881 b 1350 439 1264 701 1350 579 b 1142 106 1350 296 1264 175 b 744 -4 1019 36 876 -4 b 610 7 708 -4 664 0 b 386 -160 558 -79 485 -135 b 363 -132 368 -165 351 -153 b 392 79 394 -64 404 6 b 139 439 224 175 139 294 b 543 853 136 657 340 803 "},"j":{"ha":1825,"x_min":0,"x_max":0,"o":"m 544 97 b 360 -46 500 24 439 -24 b 338 -22 339 -53 331 -43 b 360 158 363 33 369 93 b 139 469 213 242 139 346 b 321 758 139 592 214 697 b 664 851 426 818 551 851 b 1008 758 776 851 901 818 b 1189 469 1114 697 1189 592 b 1101 258 1189 389 1160 318 b 897 128 1043 199 975 154 b 664 88 819 101 742 88 b 544 97 647 88 607 90 m 1506 19 b 1518 -119 1497 -32 1501 -79 b 1499 -142 1525 -142 1519 -149 b 1361 -31 1436 -119 1400 -92 b 1014 22 1222 -49 1107 -32 b 953 81 988 38 968 57 b 1254 469 1132 158 1254 292 b 1238 578 1254 508 1249 544 b 1336 575 1264 582 1296 581 b 1569 483 1421 558 1497 531 b 1686 272 1640 436 1686 361 b 1506 19 1686 171 1626 88 "},"k":{"ha":1314,"x_min":0,"x_max":0,"o":"m 1157 807 b 1175 789 1169 807 1175 801 l 1175 758 b 1157 740 1175 746 1169 740 l 1071 740 l 1013 -22 b 938 -189 1007 -87 982 -143 b 776 -256 892 -233 838 -256 l 538 -256 b 376 -189 476 -256 422 -233 b 303 -22 333 -144 308 -89 l 244 740 l 157 740 b 139 758 144 740 139 746 l 139 789 b 157 807 139 801 144 807 l 464 807 l 464 908 b 524 967 464 940 490 967 l 792 967 b 850 908 824 967 850 940 l 850 807 m 524 807 l 790 807 l 790 907 l 524 907 "},"l":{"ha":1371,"x_min":0,"x_max":0,"o":"m 1233 425 b 1197 386 1235 403 1219 386 l 729 386 l 729 -49 b 674 -185 729 -101 711 -147 b 536 -242 636 -222 590 -242 b 400 -186 482 -242 438 -224 b 343 -49 363 -149 343 -103 b 361 -31 343 -36 349 -31 l 392 -31 b 410 -49 404 -31 410 -36 b 536 -175 410 -117 468 -175 b 663 -49 604 -175 663 -117 l 663 386 l 176 386 b 140 425 154 386 139 403 b 315 724 157 546 215 646 b 654 851 414 801 528 844 l 654 936 b 672 954 654 949 660 954 l 701 954 b 719 936 714 954 719 949 l 719 851 b 1233 425 961 843 1203 669 "},"m":{"ha":1363,"x_min":0,"x_max":0,"o":"m 939 896 b 981 856 963 896 981 879 l 981 700 l 382 700 l 382 856 b 424 896 382 879 400 896 m 1047 310 l 315 310 l 315 47 l 139 47 l 139 471 b 188 586 139 515 156 554 b 303 633 219 618 257 633 l 1060 633 b 1176 586 1106 633 1144 618 b 1224 471 1208 554 1224 515 l 1224 47 l 1047 47 m 1008 560 b 960 511 982 560 960 538 b 1008 461 960 483 982 461 b 1058 511 1036 461 1058 483 b 1008 560 1058 538 1036 560 m 424 -215 b 382 -175 400 -215 382 -199 l 382 243 l 981 243 l 981 -175 b 939 -215 981 -199 963 -215 "},"n":{"ha":1133,"x_min":0,"x_max":0,"o":"m 272 -274 b 254 -256 260 -274 254 -268 l 254 -226 b 272 -208 254 -214 260 -208 l 429 -208 l 429 -46 b 192 25 343 -40 264 -17 b 186 51 182 32 179 40 l 200 78 b 225 82 207 88 215 89 b 581 36 339 17 457 1 b 867 254 707 69 801 142 b 913 611 932 367 947 485 b 694 896 879 738 807 832 b 688 921 685 901 682 910 l 703 947 b 728 953 708 957 717 958 b 976 628 856 879 939 771 b 599 -28 1057 351 879 40 b 490 -46 565 -37 529 -43 l 490 -208 l 647 -208 b 665 -226 660 -208 665 -214 l 665 -256 b 647 -274 665 -268 660 -274 m 686 715 b 779 489 749 653 779 578 b 686 263 779 400 749 325 b 460 169 624 200 547 169 b 233 263 371 169 296 200 b 139 489 171 325 139 400 b 233 715 139 578 171 653 b 460 808 296 778 371 808 b 686 715 547 808 624 778 "},"o":{"ha":1542,"x_min":0,"x_max":0,"o":"m 368 785 b 253 738 322 785 285 769 b 204 622 221 706 204 667 l 204 547 b 186 529 204 535 199 529 l 157 529 b 139 547 144 529 139 535 l 139 622 b 207 785 139 685 161 739 b 368 851 251 829 306 851 l 442 851 b 460 833 454 851 460 846 l 460 804 b 442 785 460 792 454 785 l 368 785 m 1172 785 b 1289 738 1218 785 1257 769 b 1336 622 1321 706 1336 667 l 1336 547 b 1354 529 1336 535 1342 529 l 1385 529 b 1403 547 1397 529 1403 535 l 1403 622 b 1335 785 1403 685 1381 739 b 1172 851 1289 829 1235 851 l 1099 851 b 1081 833 1086 851 1081 846 l 1081 804 b 1099 785 1081 792 1086 785 l 1172 785 m 368 -86 b 204 78 278 -86 204 -12 l 204 151 b 186 169 204 164 199 169 l 157 169 b 139 151 144 169 139 164 l 139 78 b 207 -85 139 15 161 -39 b 368 -153 251 -131 306 -153 l 442 -153 b 460 -133 454 -153 460 -146 l 460 -104 b 442 -86 460 -92 454 -86 l 368 -86 m 1172 -86 b 1336 78 1263 -86 1336 -12 l 1336 151 b 1354 169 1336 164 1342 169 l 1385 169 b 1403 151 1397 169 1403 164 l 1403 78 b 1335 -85 1403 15 1381 -39 b 1172 -153 1289 -131 1235 -153 l 1099 -153 b 1081 -133 1086 -153 1081 -146 l 1081 -104 b 1099 -86 1081 -92 1086 -86 l 1172 -86 "},"p":{"ha":1518,"x_min":0,"x_max":0,"o":"m 1215 697 b 1379 533 1306 697 1379 624 l 1379 18 b 1215 -146 1379 -72 1306 -146 l 303 -146 b 139 18 213 -146 139 -72 l 139 686 b 303 850 139 776 213 850 l 561 850 b 676 803 613 850 647 839 b 708 758 692 785 701 769 b 739 697 714 747 724 726 "},"q":{"ha":1611,"x_min":0,"x_max":0,"o":"m 1490 385 b 1471 383 1490 372 1474 371 b 1246 569 1453 493 1357 569 l 311 569 l 292 569 l 292 732 b 456 876 292 821 363 876 l 721 876 b 817 849 761 876 797 860 b 850 811 826 842 838 829 b 874 772 863 793 869 779 b 899 722 878 765 886 749 l 1326 722 b 1490 574 1417 722 1490 664 m 1246 503 b 1404 379 1322 503 1388 453 l 1485 26 b 1456 -115 1497 -26 1488 -74 b 1325 -178 1424 -157 1379 -178 l 413 -178 b 254 -54 335 -178 271 -128 l 163 340 b 311 503 139 444 204 503 "},"r":{"ha":1497,"x_min":0,"x_max":0,"o":"m 313 785 b 379 832 322 817 344 832 l 1119 832 b 1186 785 1154 832 1176 817 l 1344 328 l 988 328 b 926 274 958 328 931 306 b 864 157 921 224 900 185 b 749 115 828 129 789 115 b 633 157 708 115 669 129 b 571 274 597 185 576 224 b 510 328 567 306 542 328 l 153 328 m 1358 -60 b 1281 -137 1358 -104 1325 -137 l 217 -137 b 139 -60 172 -137 139 -104 l 139 261 l 506 261 b 815 60 526 93 688 25 b 992 261 903 76 976 154 l 1358 261 "},"s":{"ha":1318,"x_min":0,"x_max":0,"o":"m 1179 178 b 1043 42 1179 104 1119 42 l 938 42 l 938 539 l 672 806 l 446 806 l 446 825 b 582 961 446 899 508 961 l 913 961 l 913 751 b 969 696 913 722 938 696 l 1179 696 m 1158 756 l 972 756 l 972 942 m 872 -44 b 736 -181 872 -118 810 -181 l 275 -181 b 139 -44 201 -181 139 -118 l 139 603 b 275 739 139 676 201 739 l 606 739 l 606 529 b 661 474 606 497 632 474 l 872 474 m 851 533 l 665 533 l 665 719 "},"t":{"ha":1335,"x_min":0,"x_max":0,"o":"m 1321 821 b 1279 864 1321 844 1303 864 l 947 864 b 929 846 935 864 929 858 l 929 815 b 947 797 929 800 932 797 l 1207 797 l 868 458 b 869 432 860 450 860 442 l 890 413 b 917 413 900 404 908 404 l 1256 750 l 1256 482 b 1274 465 1254 469 1258 465 l 1303 465 b 1321 482 1315 465 1321 471 m 1313 -79 b 1303 -125 1321 -99 1318 -114 b 846 -118 1182 -211 1029 -208 b 547 101 739 -65 639 8 b 336 392 454 194 385 292 b 329 849 246 575 243 728 b 375 858 340 864 356 867 b 610 619 474 813 553 733 b 606 578 617 604 615 590 l 542 493 b 538 451 532 479 531 465 b 683 238 576 367 625 296 b 906 83 751 169 826 118 b 947 88 919 76 933 78 l 1032 151 b 1074 156 1044 161 1058 163 b 1313 -79 1188 99 1267 19 "},"u":{"ha":1335,"x_min":0,"x_max":0,"o":"m 1313 756 b 1074 521 1267 657 1188 578 b 1032 525 1058 514 1044 515 l 947 589 b 906 593 933 599 919 600 b 683 439 826 558 751 507 b 538 225 625 381 576 310 b 542 183 531 211 532 197 l 606 99 b 610 57 615 86 617 72 b 375 -182 553 -57 474 -136 b 329 -172 356 -190 340 -187 b 336 285 243 -51 246 101 b 547 575 385 385 454 482 b 846 794 639 668 739 742 b 1303 801 1029 885 1182 888 b 1313 756 1318 790 1321 775 m 865 -101 b 883 -118 865 -112 871 -118 l 913 -118 b 931 -101 928 -118 932 -114 l 931 167 l 1269 -171 b 1296 -171 1278 -179 1286 -179 l 1317 -151 b 1318 -125 1326 -142 1326 -133 l 979 214 l 1239 214 b 1257 232 1254 214 1257 217 l 1257 263 b 1239 281 1257 275 1251 281 l 907 281 b 865 238 883 281 865 261 "},"v":{"ha":1325,"x_min":0,"x_max":0,"o":"m 1313 756 b 1074 521 1267 657 1188 578 b 1032 525 1058 514 1044 515 l 947 589 b 906 593 933 599 919 600 b 683 439 826 558 751 507 b 538 225 625 381 576 310 b 542 183 531 211 532 197 l 606 99 b 610 57 615 86 617 72 b 375 -182 553 -57 474 -136 b 329 -172 356 -190 340 -187 b 336 285 243 -51 246 101 b 547 575 385 385 454 482 b 846 794 639 668 739 742 b 1303 801 1029 885 1182 888 b 1313 756 1318 790 1321 775 "},"w":{"ha":1622,"x_min":0,"x_max":0,"o":"m 1422 667 b 1482 592 1463 667 1492 629 l 1367 172 b 1144 7 1340 72 1249 7 l 810 7 b 583 186 694 7 606 75 l 463 806 b 333 906 447 878 410 906 l 157 906 b 139 924 144 906 139 911 l 139 954 b 157 972 139 967 144 972 l 333 972 b 528 818 443 972 507 921 l 557 667 m 739 -87 b 867 -87 775 -53 832 -53 b 867 -215 901 -122 901 -181 b 739 -215 832 -250 775 -250 b 739 -87 703 -181 703 -122 m 1088 -87 b 1217 -87 1122 -53 1181 -53 b 1217 -215 1253 -122 1253 -181 b 1088 -215 1181 -250 1122 -250 b 1088 -87 1053 -181 1053 -122 "},"x":{"ha":1624,"x_min":0,"x_max":0,"o":"m 1424 667 b 1482 592 1463 667 1493 629 l 1368 172 b 1146 7 1340 72 1250 7 l 810 7 b 585 186 694 7 607 75 l 463 806 b 335 906 450 878 411 906 l 158 906 b 139 924 146 906 139 911 l 139 954 b 158 972 139 967 146 972 l 335 972 b 528 818 443 972 507 921 l 557 667 m 1264 733 l 749 733 l 883 869 b 1129 868 971 958 1042 957 m 739 -87 b 868 -87 774 -53 832 -53 b 868 -215 904 -122 904 -181 b 739 -215 832 -250 774 -250 b 739 -87 704 -181 704 -122 m 1089 -87 b 1217 -87 1124 -53 1182 -53 b 1217 -215 1251 -122 1251 -181 b 1089 -215 1182 -250 1124 -250 b 1089 -87 1054 -181 1054 -122 "},"y":{"ha":1408,"x_min":0,"x_max":0,"o":"m 438 758 b 419 776 425 758 419 764 b 567 1097 419 906 468 1013 b 593 1096 576 1104 585 1104 l 613 1072 b 611 1047 619 1063 619 1054 b 486 776 528 976 486 886 b 468 758 486 764 481 758 m 614 758 b 596 776 601 758 596 764 b 711 1026 596 876 635 960 b 738 1025 721 1033 731 1033 l 757 1003 b 756 976 764 993 764 985 b 663 776 693 922 663 856 b 644 758 663 764 657 758 m 1026 560 b 1026 68 1350 560 1350 68 l 976 68 l 976 -60 b 919 -199 976 -114 957 -160 b 781 -256 881 -236 835 -256 l 336 -256 b 197 -199 282 -256 236 -236 b 139 -60 158 -160 139 -114 l 139 635 b 201 697 139 668 168 697 l 914 697 b 976 635 949 697 976 668 l 976 560 m 1026 135 b 1197 368 1168 132 1225 267 b 1026 494 1183 439 1115 494 l 976 494 l 976 135 "},"z":{"ha":1506,"x_min":0,"x_max":0,"o":"m 497 583 l 497 674 b 1017 674 497 1015 1017 1015 l 1017 583 l 1053 583 b 1278 392 1182 583 1257 519 l 1369 -171 b 1308 -242 1375 -208 1347 -242 l 206 -242 b 144 -171 167 -242 139 -208 l 236 392 b 461 583 257 519 332 583 m 950 583 l 950 674 b 564 674 950 928 564 928 l 564 583 m 579 425 b 483 425 551 451 510 451 b 483 329 456 397 456 356 b 579 329 510 301 551 301 b 579 425 606 356 606 397 m 1032 425 b 936 425 1004 451 963 451 b 936 329 908 397 908 356 b 1032 329 963 301 1004 301 b 1032 425 1058 356 1058 397 "}}}
